<?xml version="1.0" encoding="utf-8"?>
<!--Designed by Vexels.com - 2017 All Rights Reserved - https://vexels.com/terms-and-conditions/-->
<svg version="1.1" id="Layer_1" xmlns="http://www.w3.org/2000/svg" xmlns:xlink="http://www.w3.org/1999/xlink" x="0px" y="0px"
	 width="1200px" height="1200px" viewBox="0 0 1200 1200" enable-background="new 0 0 1200 1200" xml:space="preserve">
<path fill="#1B1F18" d="M1148.883,627.951c-0.009-0.362,0.004-0.712-0.025-1.084c-0.018-0.229-0.227-0.302-0.511-0.316
	c-3.219-7.547-20.407-14.027-20.407-14.027c-3.836-2.588-6.801-5.396-8.836-7.543c-10.07-13.992-27.316-15.905-64.911-21.537
	c-38.355-5.746-110.22,1.196-150.227,5.805c-40.007,4.609-181.711,19.241-181.711,19.241l-70.263,6.181
	c-2.577-0.802-5.086-1.626-7.566-2.52c-16.728-6.031-202.418-76.243-247.225-95.332c-44.807-19.089-177.678-80.93-184.276-83.226
	c-6.598-2.297-9.032-4.142-10.593-4.311c-1.562-0.17-42.352-31.991-42.352-31.991s-10.352,0.364-9.66,5.303
	c-0.152,0.368-0.239,0.766-0.222,1.21c-0.14,0.723-0.017,1.59,0.543,2.667c0.614,1.18,1.5,2.985,2.534,5.138
	c3.588,8.363,9.473,21.769,12.01,25.792c0.093,0.203,0.145,0.317,0.145,0.317l0.053-0.011c0.263,0.393,0.487,0.675,0.655,0.802
	c1.573,1.192,104.929,60.555,193.714,109.229c-1.223,0.332-2.49,0.702-3.801,1.112l-0.14,0.024c0,0-0.042,0.025-0.059,0.035
	c-0.126,0.04-0.241,0.069-0.368,0.11c-8.013,4.661-16.415,9.279-16.415,9.279s-3.675,4.737,0.968,5.636
	c4.643,0.899,11.238,2.011,11.238,2.011s15.01-0.475,34.71-3.967c10.928,5.914,21.422,11.538,31.226,16.719
	c-0.412,0.123-0.812,0.236-1.233,0.368l-0.139,0.024c0,0-0.042,0.025-0.059,0.035c-0.126,0.04-0.241,0.069-0.368,0.11
	c-8.012,4.66-16.415,9.278-16.415,9.278s-3.675,4.737,0.968,5.636s11.239,2.011,11.239,2.011s13.984-0.441,32.674-3.612
	c11.881,6.034,21.801,10.836,29.025,13.97c-0.002,0.001-0.036,0.02-0.051,0.029c-0.126,0.035-0.241,0.06-0.367,0.096
	c-7.981,4.374-16.351,8.69-16.351,8.69s-3.662,4.616,0.961,5.696c4.623,1.08,11.191,2.448,11.191,2.448s13.462,0.086,31.601-2.258
	c3.332,2.038,6.487,4.058,9.478,6.048c-12.98,1.498-117.461,13.512-138.818,14.649c-22.782,1.213-50.703-18.15-62.305-32.578
	c-11.601-14.429-83.994-104.465-90.321-114.107c-6.327-9.642-15.109-6.382-15.109-6.382l-35.673,3.499c0,0,0.046,0.235,0.125,0.644
	l-2.008,0.214l23.703,113.757c0.178,0.019,0.573,0.361,1.116,0.923c3.16,15.342,5.646,26.873,6.568,29.889
	c0.598,1.955,0.986,4.03,1.24,6.122l-92.958-29.78c0,0-13.197-4.594-30.139-3.801c-16.942,0.794-24.513,2.605-24.513,2.605
	s0.823,0.383,2.319,1.081C50.82,614.285,50,614.479,50,614.479s77.844,36.292,119.245,55.368c-0.145,0.07-0.299,0.131-0.442,0.203
	c-11.079,9.858,3.623,15.142,3.623,15.142s14.815,4.243,34.892,8.531c3.756,0.802,9.126,2.204,15.373,3.953l-0.558,0.291
	c1.505,0.69,37.723,30.962,39.342,30.611c1.515-0.328,22.096-1.82,33.237-8.868c1.823,0.452,5.746,1.417,11.19,2.712
	c34.233,8.789,67.97,16.011,81.373,18.772c-1.578-0.932-3.101-1.941-4.598-2.987c7.967,1.255,15.422,2.231,21.783,2.741
	c46.798,5.61,127.457,0.149,137.575-0.858c10.118-1.008,40.313,2.272,56.916,4.602c14.502,2.035,45.562,7.073,97.764,1.924
	c-0.549,0.21-1.081,0.419-1.586,0.628c-1.447,0.597-2.688,1.184-3.568,1.72c-4.694,2.862-4.154,4.1-0.521,6.349
	c0.256,0.159,0.56,0.301,0.889,0.436c0.092,0.037,0.196,0.07,0.294,0.106c0.26,0.096,0.533,0.186,0.828,0.269
	c0.109,0.031,0.222,0.059,0.335,0.088c0.327,0.084,0.671,0.161,1.031,0.231c0.09,0.018,0.178,0.036,0.27,0.053
	c0.46,0.084,0.938,0.16,1.44,0.226c0.443,0.086,0.889,0.16,1.339,0.227c0.044,0.007,0.065-0.557,0.109-0.551
	c0.456,0.066,0.888-0.399,1.345-0.399c0.005,0,0.01,0,0.014,0c4.775,0,9.532,0.677,11.851,0.404c0.004,0,0.021,0.285,0.025,0.284
	c0.216-0.026,0.409,0.095,0.581,0.072c0.034-0.004,0.067,0.063,0.1,0.059c0.147-0.019,0.274,0,0.38-0.015
	c0.056-0.008,0.091,0.005,0.136-0.001c0.073-0.011,0.133-0.01,0.175-0.016c0.069-0.01,0.107-0.012,0.107-0.012l-0.046-0.286
	c0.44-0.024,0.91-0.255,1.414-0.286c0.251,0.007,0.552-0.201,0.891-0.201c0.047,0,0.102,0,0.15,0c0.301,0,0.628,0.188,0.989,0.174
	c0.085-0.003,0.178,0.094,0.266,0.09c0.345-0.014,0.709,0.019,1.1-0.002c0.121-0.006,0.247,0.012,0.372,0.005
	c0.375-0.021,0.767-0.032,1.177-0.058c0.166-0.01,0.333-0.015,0.504-0.026c0.408-0.027,0.831-0.053,1.268-0.084
	c0.178-0.013,0.354-0.024,0.537-0.037c0.46-0.034,0.936-0.069,1.423-0.107c0.186-0.014,0.367-0.028,0.557-0.043
	c0.544-0.043,1.107-0.088,1.679-0.135c0.133-0.011,0.259-0.021,0.393-0.032c0.722-0.06,1.461-0.122,2.218-0.188
	c-0.194,0.047-0.403,0.101-0.608,0.153c-0.19,0.048-0.379,0.096-0.579,0.148c-0.215,0.056-0.433,0.114-0.658,0.174
	c-0.222,0.06-0.449,0.122-0.679,0.185c-0.218,0.06-0.431,0.119-0.656,0.182c-0.424,0.12-0.856,0.244-1.299,0.374
	c-0.189,0.055-0.381,0.114-0.572,0.171c-0.308,0.092-0.617,0.185-0.93,0.281c-0.213,0.065-0.426,0.132-0.641,0.199
	c-0.317,0.099-0.634,0.2-0.953,0.302c-0.195,0.063-0.388,0.124-0.583,0.188c-0.498,0.162-0.995,0.327-1.489,0.495
	c-0.089,0.03-0.176,0.062-0.265,0.092c-0.422,0.145-0.84,0.291-1.252,0.439c-0.162,0.058-0.321,0.116-0.481,0.174
	c-0.353,0.128-0.699,0.257-1.041,0.386c-0.147,0.056-0.295,0.111-0.44,0.167c-0.466,0.18-0.921,0.359-1.354,0.538
	c-0.037,0.015-0.069,0.03-0.105,0.045c-0.395,0.164-0.771,0.327-1.132,0.488c-0.12,0.054-0.232,0.106-0.347,0.159
	c-0.281,0.129-0.546,0.257-0.799,0.384c-0.101,0.051-0.204,0.101-0.3,0.151c-0.328,0.17-0.636,0.338-0.902,0.5
	c-0.587,0.358-1.092,0.69-1.519,1.002c-1.282,0.936-1.866,1.691-1.864,2.402c0.001,0.237,0.066,0.47,0.193,0.702
	c0.126,0.233,0.314,0.466,0.558,0.704c0.488,0.477,1.203,0.976,2.111,1.539c0.256,0.158,0.56,0.301,0.889,0.436
	c0.093,0.038,0.199,0.071,0.297,0.107c0.258,0.095,0.53,0.185,0.823,0.267c0.111,0.031,0.226,0.061,0.343,0.09
	c0.324,0.083,0.665,0.159,1.022,0.229c0.093,0.018,0.165,0.193,0.26,0.21c0.456,0.083,0.91,0.379,1.409,0.379
	c0.003,0,0.005,0,0.008,0c0.001,0,0.003,0,0.004,0c0.444,0,0.901,0.005,1.347,0.071c0.049,0.007,0.093,0.056,0.142,0.063
	c0.452,0.065,0.901,0.158,1.354,0.208c0.01,0.001-0.72-0.568-0.711-0.567c4.776,0.519,11.22,0.752,11.22-1.948v-0.019
	c0,0,1.094,1.018,1.267,0.996c0.033-0.004,0.404,0.526,0.435,0.522c0.148-0.02,0.445,0.231,0.553,0.215
	c0.056-0.008,0.176,0.121,0.221,0.114c0.073-0.011,0.175,0.048,0.217,0.041c0.069-0.01,0.129,0.017,0.129,0.017l-0.036-0.272
	c0.008,0-0.582,0.564-0.574,0.563c0.432-0.024-2.212,0.599,0.788,0.599V770c0,0,1.24,0,1.245,0c0.62,0,1.521,0,2.646,0
	c0.023,0,0.039,0,0.063,0c0.34,0,0.707-0.379,1.085-0.4c0.065-0.004,0.125-0.178,0.191-0.182c0.366-0.021,0.752-0.131,1.149-0.157
	c0.098-0.006,0.194-0.055,0.294-0.062c0.407-0.027,0.831-0.078,1.267-0.109c0.083-0.006,0.166-0.023,0.25-0.029
	c0.481-0.035,0.976-0.077,1.488-0.116c0.02-0.002,0.04-0.006,0.06-0.007c0.551-0.043,1.116-0.088,1.698-0.135
	c-0.016,0.004-0.035,0.009-0.051,0.014c-0.59,0.158-1.212,0.332-1.856,0.516c-0.117,0.034-0.233,0.067-0.351,0.101
	c-0.652,0.189-1.318,0.386-2,0.596c-0.031,0.01-0.061,0.018-0.093,0.028c-0.719,0.221-1.445,0.452-2.173,0.69
	c-0.131,0.043-0.26,0.087-0.391,0.13c-0.574,0.19-1.141,0.382-1.705,0.579c-0.19,0.066-0.376,0.131-0.564,0.198
	c-0.613,0.218-1.214,0.437-1.796,0.657c-0.069,0.026-0.141,0.052-0.209,0.078c-0.633,0.242-1.232,0.483-1.805,0.723
	c-0.16,0.067-0.307,0.133-0.462,0.199c-0.417,0.18-0.81,0.358-1.18,0.534c-0.147,0.07-0.295,0.139-0.434,0.208
	c-0.467,0.232-0.901,0.46-1.259,0.678c-4.694,2.862-4.154,4.101-0.521,6.349c0.681,0.422,1.639,0.755,2.785,1.015
	c0.764,0.173,1.613,0.314,2.52,0.426c1.36,0.168,2.851,0.273,4.386,0.329c3.581,0.131,7.401-0.003,10.352-0.21
	c0.422-0.03,0.825-0.061,1.208-0.093c-0.027-0.087-0.045-0.194-0.069-0.287c5.323-0.295,15.548-1.089,25.933-1.939
	c0.192,1.58,0.485,3.219,0.923,4.912c0.736,2.846,2.495,5.06,4.633,6.8c3.159,2.573,7.162,4.088,10.045,4.902
	c2.197,0.62,3.737,0.844,3.737,0.844s-0.086-0.078-0.24-0.226c0.992,0.17,2.018,0.326,3.116,0.45
	c13.3,1.503,28.756,3.313,43.401,4.231c4.069,0.255,5.431,0.358,9.312,0.449L844,802.613v-0.005c14,0.318,21.957-0.081,29.218-1.575
	c1.534-0.316,4.314-0.585,5.743-0.887c0.229-0.048,1.108-0.077,1.334-0.125c1.329-0.281,2.94-0.547,4.174-0.814
	c0.014-0.003,0.195-0.002,0.209-0.005c0.002,0.002,0.085,0.005,0.088,0.006c0.114,0.088,0.235,0.149,0.235,0.149l-0.003-0.19
	c0.006-0.001,0.022-0.002,0.028-0.004c3.057-0.663,5.819-1.278,8.27-1.839c0.053-0.012,0.109-0.024,0.162-0.036
	c1.754-0.401,3.348-0.773,4.776-1.111c0.08-0.019,0.164-0.038,0.243-0.057c0.424-0.101,1.91-0.197,2.303-0.292
	c0.045-0.011,1.22-0.023,1.22-0.033v-0.579c0,0.112-0.822,1.782-0.116,1.782c0.005,0,0.011,0,0.017,0
	c0.705,0,1.433-0.633,2.188-0.794c0.006-0.001,0.012-0.268,0.018-0.27c0.405-0.088,0.803-0.342,1.197-0.488
	c0.135-0.05,0.266-0.179,0.399-0.236c0.263-0.111,0.524-0.263,0.782-0.4c0.154-0.082,0.305-0.188,0.456-0.278
	c0.231-0.138,0.459-0.295,0.685-0.454c0.157-0.11,0.313-0.225,0.467-0.345c0.217-0.169,0.429-0.355,0.64-0.543
	c0.151-0.134,0.303-0.261,0.451-0.405c0.23-0.224,0.453-0.469,0.676-0.715c0.266-0.294,0.526-0.606,0.781-0.932
	c0.153-0.196,0.309-0.385,0.458-0.592c0.185-0.256,0.363-0.532,0.542-0.805c0.117-0.18,0.235-0.358,0.35-0.545
	c0.186-0.303,0.366-0.617,0.544-0.939c0.094-0.17,0.186-0.342,0.277-0.517c0.187-0.357,0.371-0.72,0.549-1.098
	c0.057-0.123,0.112-0.251,0.169-0.376c0.88-1.937,1.635-4.135,2.246-6.569c0.019-0.077,0.039-0.153,0.059-0.231
	c0.144-0.587,0.279-1.189,0.406-1.802c0.019-0.092-0.269-0.219-0.25-0.312c0.128-0.633-0.022-1.305,0.051-1.97
	c0-0.002-0.037,0.342-0.037,0.342l0.661,0.072c0.422-2.669,0.659-5.023,0.791-7.683c0.292-5.917-0.352-11.655-1.732-16.449
	c-1.491-6.245-4.091-10.408-6.792-12.388c-1.559-1.262-3.215-2.684-5.083-2.887c-0.044-0.005-0.088-0.01-0.132-0.014
	c-1.914-0.208-3.291,0.442-3.291,0.442s-6.265,0-16.257,0.237c-11.462-1.36-42.28-4.913-45.723-5.769
	c-4.241-1.054-5.516-3.891-5.516-3.891l-1.233-7.247c18.077-4.829,30.375-8.548,32.727-9.323
	c16.365-0.33,107.888-8.815,160.378-16.809c52.49-7.994,100.134-34.419,113.295-44.051
	C1150.632,640.793,1151.312,635.111,1148.883,627.951z M756.214,737.97c0.001,0.002,0.003,0.005,0.005,0.007
	c-0.129-0.074-0.261-0.149-0.392-0.224c0.075-0.014,0.149-0.029,0.224-0.043c0.047,0.076,0.092,0.146,0.14,0.222
	C756.198,737.945,756.206,737.957,756.214,737.97z"/>
</svg>
